<svg width="20" height="20" viewBox="0 0 20 20" fill="none" xmlns="http://www.w3.org/2000/svg">
<path fill-rule="evenodd" clip-rule="evenodd" d="M10.2088 7.0835C9.40466 7.0835 8.75049 7.73766 8.75049 8.54266C8.75049 9.34683 9.40466 10.0002 10.2088 10.0002C11.013 10.0002 11.6672 9.34683 11.6672 8.54266C11.6672 7.73766 11.013 7.0835 10.2088 7.0835ZM10.2088 11.2502C8.71549 11.2502 7.50049 10.036 7.50049 8.54266C7.50049 7.0485 8.71549 5.8335 10.2088 5.8335C11.7022 5.8335 12.9172 7.0485 12.9172 8.54266C12.9172 10.036 11.7022 11.2502 10.2088 11.2502Z" fill="#727272"/>
<mask id="mask0_9_1650" style="mask-type:luminance" maskUnits="userSpaceOnUse" x="3" y="1" width="15" height="17">
<path fill-rule="evenodd" clip-rule="evenodd" d="M3.3335 1.66675H17.0831V17.9167H3.3335V1.66675Z" fill="white"/>
</mask>
<g mask="url(#mask0_9_1650)">
<path fill-rule="evenodd" clip-rule="evenodd" d="M10.208 2.91675C7.10634 2.91675 4.58301 5.46425 4.58301 8.59425C4.58301 12.5767 9.26967 16.4567 10.208 16.6634C11.1463 16.4559 15.833 12.5759 15.833 8.59425C15.833 5.46425 13.3097 2.91675 10.208 2.91675ZM10.208 17.9167C8.71301 17.9167 3.33301 13.2901 3.33301 8.59425C3.33301 4.77425 6.41717 1.66675 10.208 1.66675C13.9988 1.66675 17.083 4.77425 17.083 8.59425C17.083 13.2901 11.703 17.9167 10.208 17.9167Z" fill="#727272"/>
</g>
</svg>
